<?xml version="1.0" standalone="no"?>
<!DOCTYPE svg PUBLIC "-//W3C//DTD SVG 20010904//EN"
 "http://www.w3.org/TR/2001/REC-SVG-20010904/DTD/svg10.dtd">
<svg version="1.0" xmlns="http://www.w3.org/2000/svg"
 width="150.000000pt" height="150.000000pt" viewBox="0 0 150.000000 150.000000"
 preserveAspectRatio="xMidYMid meet">
<metadata>
Created by potrace 1.11, written by Peter Selinger 2001-2013
</metadata>
<g transform="translate(0.000000,150.000000) scale(0.100000,-0.100000)"
fill="#000000" stroke="none">
<path d="M0 750 l0 -750 750 0 750 0 0 750 0 750 -750 0 -750 0 0 -750z m846
290 c56 -28 76 -60 82 -137 l5 -63 -76 0 -76 0 -3 57 c-2 45 -7 59 -20 61 -21
4 -25 -44 -20 -251 3 -124 5 -138 20 -135 24 5 31 138 7 138 -11 0 -15 11 -15
40 l0 40 90 0 90 0 0 -155 0 -155 -50 0 c-38 0 -50 4 -50 15 0 20 -7 19 -37
-5 -52 -41 -149 -14 -188 51 -18 31 -20 52 -20 226 0 179 1 193 21 220 55 74
152 95 240 53z m-336 -275 l0 -285 -75 0 -75 0 0 285 0 285 75 0 75 0 0 -285z
m640 0 l0 -285 -75 0 -75 0 0 285 0 285 75 0 75 0 0 -285z"/>
</g>
</svg>
