<?xml version="1.0" encoding="UTF-8"?> <!-- Generator: Adobe Illustrator 22.0.0, SVG Export Plug-In . SVG Version: 6.00 Build 0) --> <svg xmlns="http://www.w3.org/2000/svg" xmlns:xlink="http://www.w3.org/1999/xlink" id="Слой_1" x="0px" y="0px" viewBox="0 0 700 200" style="enable-background:new 0 0 700 200;" xml:space="preserve"> <style type="text/css"> .st0{display:none;} .st1{fill:url(#SVGID_1_);} .st2{fill:url(#SVGID_2_);} .st3{fill:url(#SVGID_3_);} .st4{fill:url(#SVGID_4_);} .st5{fill:url(#SVGID_5_);} .st6{fill:url(#SVGID_6_);} .st7{fill:#FFFFFF;} .st8{fill:url(#SVGID_7_);} </style> <rect x="-150.2" y="-400" class="st0" width="1000" height="1000"></rect> <image style="display:none;overflow:visible;" width="1280" height="588" xlink:href="C:\Users\User\Desktop\fd703f7d-739c-4f64-a483-b10e0bfdde86.jpg" transform="matrix(0.5331 0 0 0.5331 -6.468 -47.6813)"> </image> <g> <linearGradient id="SVGID_1_" gradientUnits="userSpaceOnUse" x1="102.9702" y1="109.9026" x2="319.7449" y2="-26.2117"> <stop offset="0" style="stop-color:#FFDF64"></stop> <stop offset="1" style="stop-color:#FF8E00"></stop> </linearGradient> <rect x="116.5" y="61.3" class="st1" width="19.4" height="68.1"></rect> <linearGradient id="SVGID_2_" gradientUnits="userSpaceOnUse" x1="79.6426" y1="72.7511" x2="296.4172" y2="-63.3632"> <stop offset="0" style="stop-color:#FFDF64"></stop> <stop offset="1" style="stop-color:#FF8E00"></stop> </linearGradient> <path class="st2" d="M126.2,53.2L126.2,53.2c-5.4,0-9.7-4.3-9.7-9.7v0c0-5.4,4.3-9.7,9.7-9.7h0c5.4,0,9.7,4.3,9.7,9.7v0 C135.9,48.9,131.5,53.2,126.2,53.2z"></path> <linearGradient id="SVGID_3_" gradientUnits="userSpaceOnUse" x1="125.5085" y1="145.797" x2="342.2832" y2="9.6826"> <stop offset="0" style="stop-color:#FFDF64"></stop> <stop offset="1" style="stop-color:#FF8E00"></stop> </linearGradient> <rect x="218" y="33.8" class="st3" width="19.4" height="95.5"></rect> <linearGradient id="SVGID_4_" gradientUnits="userSpaceOnUse" x1="117.4462" y1="132.957" x2="334.2209" y2="-3.1574"> <stop offset="0" style="stop-color:#FFDF64"></stop> <stop offset="1" style="stop-color:#FF8E00"></stop> </linearGradient> <path class="st4" d="M177,61.3c-18.9,0-34.3,15.3-34.3,34.3c0,18.9,15.3,34.3,34.3,34.3c18.9,0,34.3-15.3,34.3-34.3 C211.2,76.7,195.9,61.3,177,61.3z M177,110.7c-8.4,0-15.1-6.8-15.1-15.1c0-8.4,6.8-15.1,15.1-15.1c8.4,0,15.1,6.8,15.1,15.1 C192.1,103.9,185.3,110.7,177,110.7z"></path> <linearGradient id="SVGID_5_" gradientUnits="userSpaceOnUse" x1="146.3138" y1="178.9312" x2="363.0884" y2="42.8169"> <stop offset="0" style="stop-color:#FFDF64"></stop> <stop offset="1" style="stop-color:#FF8E00"></stop> </linearGradient> <path class="st5" d="M279,61.3c-18.9,0-34.3,15.3-34.3,34.3c0,18.9,15.3,34.3,34.3,34.3c18.9,0,34.3-15.3,34.3-34.3 C313.3,76.7,298,61.3,279,61.3z M279,110.7c-8.4,0-15.1-6.8-15.1-15.1c0-8.4,6.8-15.1,15.1-15.1c8.4,0,15.1,6.8,15.1,15.1 C294.2,103.9,287.4,110.7,279,110.7z"></path> <linearGradient id="SVGID_6_" gradientUnits="userSpaceOnUse" x1="167.6258" y1="212.8727" x2="384.4005" y2="76.7583"> <stop offset="0" style="stop-color:#FFDF64"></stop> <stop offset="1" style="stop-color:#FF8E00"></stop> </linearGradient> <path class="st6" d="M354.4,61.3c-18.9,0-34.3,15.3-34.3,34.3c0,18.9,15.3,34.3,34.3,34.3c18.9,0,34.3-15.3,34.3-34.3 C388.7,76.7,373.3,61.3,354.4,61.3z M354.4,110.7c-8.4,0-15.1-6.8-15.1-15.1c0-8.4,6.8-15.1,15.1-15.1c8.4,0,15.1,6.8,15.1,15.1 C369.5,103.9,362.8,110.7,354.4,110.7z"></path> <path class="st7" d="M430,61.3c-5.4,0-10.6,1.3-15.1,3.5v-31h-19.4v95.5h19.4v-3c4.6,2.2,9.7,3.5,15.1,3.5 c18.9,0,34.3-15.3,34.3-34.3C464.3,76.7,449,61.3,430,61.3z M430,110.7c-8.4,0-15.1-6.8-15.1-15.1c0-8.4,6.8-15.1,15.1-15.1 c8.4,0,15.1,6.8,15.1,15.1C445.2,103.9,438.4,110.7,430,110.7z"></path> <path class="st7" d="M522.5,61.3V65c-4.6-2.3-9.8-3.6-15.4-3.6c-18.9,0-34.3,15.3-34.3,34.3c0,18.9,15.3,34.3,34.3,34.3 c5.5,0,10.8-1.3,15.4-3.6v3.1h19.4V61.3H522.5z M507.2,110.7c-8.4,0-15.1-6.8-15.1-15.1c0-8.4,6.8-15.1,15.1-15.1 c8.4,0,15.1,6.8,15.1,15.1C522.3,103.9,515.5,110.7,507.2,110.7z"></path> <path class="st7" d="M583,61.3c-5.1,0-10,1.1-14.4,3.2v-3.2h-19.4v68.1h19.4V90.6h0c2.1-5.9,7.8-10.1,14.4-10.1c0.2,0,0.3,0,0.5,0 V61.3C583.4,61.3,583.2,61.3,583,61.3z"></path> <linearGradient id="SVGID_7_" gradientUnits="userSpaceOnUse" x1="138.1764" y1="165.9717" x2="354.951" y2="29.8574"> <stop offset="0" style="stop-color:#FFDF64"></stop> <stop offset="1" style="stop-color:#FF8E00"></stop> </linearGradient> <path class="st8" d="M192.1,132.4c-0.3,8.1-6.9,14.6-15.1,14.6c-8.2,0-14.8-6.5-15.1-14.6h-19.2c0.3,18.7,15.5,33.8,34.3,33.8 c18.8,0,34-15.1,34.3-33.8H192.1z"></path> </g> </svg> 